<?xml version="1.0" encoding="UTF-8" standalone="no"?>
<svg width="256px" height="256px" viewBox="0 0 256 256" version="1.1" xmlns="http://www.w3.org/2000/svg">
    <circle cx="128" cy="128" r="128" fill="#663399"/>
    <path d="M128 0C57.3 0 0 57.3 0 128s57.3 128 128 128 128-57.3 128-128S198.7 0 128 0zM27.5 129.5l99 99c-54.4-.9-98.1-44.6-99-99zm123.2 96.5L28.8 104.1c16.5-49.6 63.3-85.1 118.4-85.1 39.7 0 74.8 18.7 97.2 47.7L226.9 83c-16.5-24.6-44.6-40.9-76.7-40.9-39.9 0-73.8 25.4-86.6 61L161.8 201c27.4-9.9 48.8-33.1 55.3-61h-42.5V108h99.2c0 55.1-35.5 101.9-85.1 118.4z" fill="white"/>
</svg>
